<?xml version="1.0" encoding="UTF-8"?>
<svg width="113px" height="111px" viewBox="0 0 113 111" version="1.1" xmlns="http://www.w3.org/2000/svg" xmlns:xlink="http://www.w3.org/1999/xlink">
    <!-- Generator: Sketch 63.1 (92452) - https://sketch.com -->
    <title>ino_logo</title>
    <desc>Created with Sketch.</desc>
    <g id="Page-1" stroke="none" stroke-width="1" fill="none" fill-rule="evenodd">
        <g id="Inoreader-vs-Feedly-2v" transform="translate(-750.000000, -100.000000)" fill-rule="nonzero">
            <g id="Group-15" transform="translate(750.000000, 100.000000)">
                <g id="ino_logo" transform="translate(0.000000, 0.947368)">
                    <path d="M56.3379649,0 C87.4525638,0 112.67593,24.5927819 112.67593,54.9295158 C112.67593,85.2662496 87.4525638,109.859032 56.3379649,109.859032 C25.223366,109.859032 0,85.2662496 0,54.9295158 C0,24.5927819 25.223366,0 56.3379649,0 Z" id="Combined-Shape" fill="#007BC7"></path>
                    <path d="M43.8345218,47.2701244 C55.0754564,47.2701244 64.1917765,56.1562627 64.1917765,67.1189041 C64.1917765,78.0835702 55.0754564,86.9717333 43.8345218,86.9717333 C32.5904722,86.9717333 23.474152,78.0835702 23.474152,67.1189041 C23.474152,56.1562627 32.5904722,47.2701244 43.8345218,47.2701244 Z M49.5759655,55.7604007 C46.3526988,55.7604007 43.7400254,58.3097109 43.7400254,61.4452206 C43.7400254,64.5898424 46.3526988,67.1340904 49.5759655,67.1340904 C52.7950786,67.1340904 55.4056752,64.5898424 55.4056752,61.4452206 C55.4056752,58.3097109 52.7950786,55.7604007 49.5759655,55.7604007 Z M43.8341066,33.2432485 C62.9950974,33.2432485 78.5828727,48.4409037 78.5828727,67.119309 L78.5828727,67.119309 L71.2453722,67.119309 L71.2416916,66.6780928 C70.9990885,52.1457504 58.794134,40.3950864 43.8341066,40.3950864 L43.8341066,40.3950864 Z M43.8342105,18.3098386 C57.2070285,18.3098386 69.7750684,23.3861855 79.2319914,32.6044021 C88.6878758,41.8256561 93.8966082,54.0832013 93.8966082,67.119309 L93.8966082,67.119309 L86.5580692,67.119309 L86.5542473,66.5543302 C86.4065423,55.6427531 81.9820007,45.3998247 74.0471428,37.6645501 C65.9744382,29.7959087 55.2454465,25.4616764 43.8342105,25.4616764 L43.8342105,25.4616764 Z" id="Combined-Shape" fill="#FFFFFF"></path>
                </g>
            </g>
        </g>
    </g>
</svg>